<?xml version="1.0" encoding="UTF-8"?><svg id="Layer_1" xmlns="http://www.w3.org/2000/svg" viewBox="0 0 238.01 60.87"><defs><style>.cls-1{fill:#fd09ca;}.cls-2{fill:#1a03d6;}</style></defs><path class="cls-2" d="M25.22,27.66c.26-.73,.12-1.32-.34-1.82-.24-.26-.52-.49-.79-.72-.92-.77-.97-1.07-.35-2.08,1.42-2.3,3.06-4.44,4.66-6.61,.59-.8,1.22-1.54,2.07-2.08,.27-.17,.47-.44,.71-.65,.51-.44,1-.93,1.57-1.3,1.28-.82,2.66-.92,4.05-.32,.56,.24,1.1,.57,1.6,.92,1.03,.73,2.05,1.48,3.04,2.26,.79,.62,1.56,1.27,2.26,1.98,1.65,1.66,3.62,2.76,5.81,3.52,1.77,.61,3.6,1,5.41,1.44,.98,.24,1.96,.46,2.92,.78,2.23,.74,4.05,2.04,5.24,4.1,1.27,2.2,1.44,4.54,.76,6.96-.32,1.14-1.08,1.81-2.26,1.99-.9,.14-1.81,.23-2.7,.39-1.55,.26-3.03,.74-4.41,1.49-2.32,1.27-3.9,3.18-4.9,5.57-.34,.82-.58,1.67-.87,2.51-.25,.71-.47,1.44-.77,2.13-1.08,2.5-3.02,3.99-5.69,4.51-.97,.19-1.96,.31-2.95,.37-1.48,.09-2.96,.12-4.44,.16-2.55,.08-5.1,.15-7.66,.21-.36,0-.72-.01-1.07-.06-.76-.1-1.21-.51-1.36-1.25-.08-.38-.1-.77-.1-1.15,0-1.68-.08-3.35-.39-5-.27-1.48-.72-2.91-1.48-4.22-1.17-2-2.91-3.35-5.04-4.23-1.82-.75-3.72-1.14-5.67-1.35-1.07-.12-2.14-.16-3.2-.29-.59-.07-1.2-.19-1.75-.4-1.44-.56-2.02-2.23-1.29-3.58,.27-.51,.71-.83,1.23-1.05,.73-.31,1.51-.39,2.28-.46,1.55-.14,3.08-.08,4.61,.24,.86,.18,1.74,.21,2.62,.08,1.37-.2,2.43-.88,3.2-2,.22-.32,.4-.66,.59-1,.28-.51,.59-1,1.02-1.4,.71-.64,1.46-.7,2.27-.19,.49,.31,.86,.73,1.21,1.18,.1,.12,.19,.25,.34,.45Zm3.29,1.55c.23,.41,.6,.66,1,.88,.99,.54,2.07,.66,3.17,.56,1.1-.1,2.19-.26,3.29-.38,1.16-.13,2.33-.21,3.5-.06,1.12,.14,2.14,.5,3.01,1.25,.41,.36,.89,.65,1.37,.9,.84,.43,1.73,.43,2.59,.03,.47-.22,.9-.51,1.34-.79,.65-.42,1.3-.86,1.93-1.3,.29-.2,.58-.43,.81-.69,.38-.43,.39-.89,0-1.31-.28-.3-.62-.58-.97-.78-1.07-.62-2.07-1.33-2.99-2.16-1.16-1.05-2.3-2.14-3.46-3.19-.71-.64-1.43-1.27-2.21-1.82-1.22-.86-2.03-.76-3.04,.33-.53,.58-1.03,1.21-1.45,1.87-1.24,1.93-2.65,3.74-4.09,5.52-.27,.34-.57,.66-.9,.94-.58,.49-1.27,.64-2.01,.46-.3-.07-.58-.17-.88-.26Z"/><path class="cls-2" d="M72.96,48.89c-.03,3.31-.84,5.91-2.73,8.11-2.3,2.66-5.26,3.93-8.78,3.87-5.26-.09-10-3.64-11.48-8.63-1.16-3.91-.29-7.41,2.53-10.36,2.8-2.93,6.32-4.13,10.37-3.77,1.62,.14,3.17,.55,4.6,1.33,2.89,1.58,4.56,4.05,5.2,7.21,.18,.88,.23,1.78,.29,2.24Z"/><path class="cls-2" d="M0,48.77c.02-2.04,.48-4.04,1.61-5.86,1.44-2.31,3.51-3.81,6.13-4.56,2.48-.71,4.98-.7,7.45,.05,3.29,1.01,5.57,3.13,6.74,6.34,1.09,3,1.12,6.04-.09,9.01-1.57,3.87-4.52,6.12-8.67,6.8-2.33,.38-4.61,.13-6.76-.9-2.8-1.33-4.61-3.55-5.66-6.41-.52-1.42-.74-2.89-.76-4.48Z"/><path class="cls-1" d="M126.16,7.58c0,.48,0,.98,0,1.47,.02,3.19,.03,6.38,.05,9.56,.01,2.06,.05,4.12,.04,6.18,0,.88-.1,1.77-.14,2.65-.06,1.27,0,2.54,.09,3.81,.03,.46-.02,.94-.13,1.38-.19,.76-.73,1.19-1.51,1.33-.57,.11-1.14,.07-1.7-.04-1.52-.3-3.04-.23-4.57-.1-1.04,.08-2.07,.19-3.12,.07-2.78-.32-4.89-1.63-6.25-4.07-.8-1.44-1.29-2.99-1.36-4.64-.08-1.87,.41-3.6,1.37-5.21,.57-.96,1.26-1.84,2.14-2.55,1.98-1.59,4.21-1.98,6.65-1.38,.46,.11,.92,.23,1.38,.29,.86,.12,1.34-.27,1.4-1.13,.02-.37,0-.74,0-1.11-.06-1.67-.12-3.35-.2-5.02-.01-.27,.06-.5,.2-.73,.6-.95,1.5-1.22,2.57-1.11,.32,.03,.64,.11,.96,.14,.68,.07,1.35,.12,2.12,.18Zm-5.24,17.32c0-.97-.06-1.93-.39-2.85-.35-.97-.99-1.65-2-1.95-.82-.24-1.66-.27-2.5-.07-.98,.24-1.69,.82-2.09,1.73-.2,.45-.34,.94-.43,1.43-.2,1.08-.14,2.18-.1,3.27,.02,.4,.09,.8,.21,1.18,.37,1.22,1.2,1.96,2.47,2.18,.41,.07,.84,.1,1.26,.09,1.7-.01,2.82-.87,3.29-2.48,.24-.83,.29-1.68,.28-2.53Z"/><path class="cls-2" d="M178.45,26.26c-.07,.05-.11,.07-.12,.09-.78,1.77-1.57,3.53-2.34,5.3-.15,.35-.24,.73-.38,1.09-.36,.96-.88,1.33-1.91,1.34-.45,0-.91-.02-1.36-.08-.56-.07-.94-.41-1.19-.9-.06-.13-.12-.26-.17-.4-1.84-4.81-3.68-9.62-5.52-14.43-.1-.27-.21-.55-.25-.83-.1-.66,.23-1,.9-1.02,.62-.02,1.23-.06,1.85-.1,.28-.01,.55-.03,.83-.04,.92,0,1.54,.44,1.88,1.27,.2,.49,.37,1,.55,1.5,.67,1.91,1.34,3.83,2.02,5.74,.05,.13,.1,.26,.19,.49,.1-.27,.17-.44,.23-.62,.74-2.13,1.49-4.25,2.23-6.38,.1-.27,.21-.54,.34-.8,.36-.77,.98-1.15,1.82-1.13,.52,.01,1.04,.09,1.54,.19,.67,.14,1.12,.57,1.36,1.2,.06,.15,.11,.3,.15,.46,.42,1.99,1.16,3.88,1.89,5.78,.2,.52,.39,1.05,.59,1.58,.05-.02,.09-.02,.1-.04,.53-1.57,1.17-3.1,1.52-4.73,.1-.44,.14-.89,.26-1.32,.13-.46,.28-.93,.5-1.36,.53-1.05,1.43-1.6,2.6-1.71,1.18-.12,2.33,.1,3.51,.41-.06,.18-.11,.34-.17,.5-1.84,4.67-3.68,9.35-5.52,14.02-.2,.51-.39,1.02-.61,1.52-.39,.89-1.11,1.31-2.08,1.31-.28,0-.55-.02-.82-.06-.74-.11-1.28-.52-1.63-1.18-.12-.23-.23-.46-.31-.71-.49-1.6-1.2-3.13-1.87-4.66-.19-.43-.38-.85-.58-1.31Z"/><path class="cls-2" d="M220.34,24.33c.52-1.13,1-2.2,1.49-3.27,.52-1.11,1.04-2.22,1.57-3.32,.08-.16,.16-.32,.26-.47,.32-.51,.79-.78,1.4-.7,.69,.08,1.36,.03,2.04-.04,.3-.03,.62-.01,.92,.05,.81,.18,1.25,.98,.99,1.75-.1,.3-.28,.58-.43,.86-.23,.46-.5,.91-.7,1.38-2.41,5.61-4.81,11.23-7.22,16.84-.54,1.25-1.16,2.45-2.09,3.47-.85,.93-1.88,1.58-3.08,1.97-1.12,.37-2.23,.28-3.27-.25-.62-.31-1.2-.71-1.77-1.11-.47-.33-.57-.74-.38-1.28,.09-.24,.2-.47,.33-.7,.24-.44,.45-.89,.48-1.4,.03-.36,.25-.55,.59-.61,.21-.03,.42-.05,.63-.04,3.23,.04,5.4-2.79,5-5.77-.08-.58-.26-1.17-.48-1.71-1.74-4.2-3.51-8.38-5.26-12.57-.06-.15-.12-.3-.19-.48,.13-.06,.24-.12,.36-.15,.84-.25,1.7-.43,2.59-.41,1.18,.03,2.14,.49,2.86,1.41,.47,.59,.8,1.25,1.08,1.94,.39,.94,.76,1.88,1.17,2.81,.27,.62,.6,1.21,1.11,1.78Z"/><path class="cls-1" d="M133.55,26.98c.29,.35,.53,.67,.8,.96,.44,.47,.88,.95,1.36,1.38,.93,.81,1.98,.96,3.06,.35,.69-.39,1.33-.86,2-1.29,.13-.09,.26-.19,.32-.23,.63,.32,1.21,.6,1.79,.9,.39,.2,.79,.37,1.16,.61,.53,.34,.73,.84,.62,1.46-.15,.82-.62,1.4-1.32,1.82-.71,.42-1.5,.61-2.3,.77-1.6,.32-3.22,.33-4.85,.32-1.68,0-3.09-.69-4.43-1.56-1.49-.96-2.52-2.32-3.05-4.01-.71-2.23-.83-4.49-.08-6.74,1.08-3.21,3.31-5.14,6.69-5.66,1.99-.31,3.96-.12,5.84,.67,2.51,1.06,4.09,2.96,4.93,5.48,.26,.78,.5,1.57,.5,2.4,0,.95-.38,1.47-1.31,1.72-.34,.09-.7,.17-1.05,.18-1.56,.05-3.11,.22-4.68,.12-1.01-.06-2.01-.09-3.02-.11-.87-.02-1.72,.1-2.56,.32-.12,.03-.24,.08-.42,.15Zm3.91-6.86s0,.05-.01,.08c-.15,0-.3-.02-.44,0-.53,.09-1.07,.14-1.57,.3-.67,.22-.97,.76-.88,1.43,.07,.55,.3,.75,.87,.76,.16,0,.32,0,.49-.02,.5-.04,1-.15,1.5,.03,.05,.02,.13,0,.19-.02,.39-.17,.8-.11,1.2-.07,.21,.02,.42,.05,.63,.04,.45-.02,.69-.22,.77-.66,.04-.21,.02-.45-.03-.66-.13-.51-.52-.78-.99-.9-.56-.15-1.14-.21-1.71-.32Z"/><path class="cls-2" d="M193.69,19.23c.89-.87,1.83-1.55,2.89-2.06,1.77-.86,3.64-1.16,5.59-1.01,.83,.06,1.65,.17,2.44,.43,2.29,.78,3.63,2.35,3.97,4.73,.06,.4,.08,.8,.08,1.2,0,2.8,0,5.6-.03,8.4,0,.72-.07,1.45-.33,2.14-.18,.5-.45,.93-.91,1.22-.56,.35-1.18,.36-1.79,.22-.5-.11-1.01-.26-1.48-.48-.89-.42-1.77-.44-2.7-.2-1.43,.38-2.89,.48-4.35,.24-1.14-.19-2.19-.6-3.04-1.42-.6-.58-.99-1.27-1.18-2.07-.68-2.98,.49-5.76,3.38-7.25,.74-.38,1.52-.68,2.34-.81,.46-.07,.94-.02,1.41,0,.45,.02,.91,.08,1.36,.08,.66,0,.99-.23,1.07-.7,.1-.62-.23-1.3-.79-1.45-.34-.09-.72-.11-1.06-.05-.65,.11-1.31,.26-1.94,.46-1.19,.39-2.27,.2-3.29-.49-.54-.36-1.06-.74-1.64-1.15Zm6.45,11.12c.43-.07,.95-.1,1.45-.24,1.12-.29,1.73-1.14,1.71-2.28,0-.57-.24-.85-.8-.9-1.02-.09-2.05-.06-3.06,.13-.82,.15-1.23,.64-1.31,1.46-.02,.21-.02,.42,0,.63,.06,.59,.36,.95,.95,1.08,.31,.07,.64,.08,1.06,.12Z"/><path class="cls-1" d="M100.14,18.14c-.12,.12-.25,.24-.37,.36-.24,.24-.47,.49-.71,.73-.39,.38-.86,.57-1.41,.58-.31,0-.62-.02-.93-.03-1.95-.08-3.09,1-3.42,2.74-.14,.75-.16,1.53-.17,2.3-.03,1.8-.03,3.6-.03,5.41,0,.4,.06,.8,.06,1.2,0,.35-.02,.71-.08,1.05-.11,.61-.48,1.02-1.08,1.19-1.03,.28-2.06,.27-3.08-.03-.65-.19-.98-.67-1.08-1.31-.05-.33-.07-.67-.07-1.01,.03-3.81,.06-7.63,.09-11.44,0-.82,0-1.64,0-2.46,0-.08,0-.16,0-.24,.05-.71,.39-1.05,1.12-1.07,.62-.02,1.24-.01,1.85,0,2.23,.04,4.45,.08,6.68,.14,.65,.02,1.3-.02,1.93,.19,.14,.05,.32,0,.48-.02,.88-.15,1.76-.33,2.64-.45,.46-.06,.94-.08,1.41-.04,1.04,.09,1.7,.67,2.01,1.64,.21,.65,.24,1.33,.16,2.01-.18,1.5-.28,3.01-.26,4.52,.03,2.46,.02,4.92,.01,7.39,0,.37-.04,.74-.13,1.1-.14,.55-.51,.94-1.06,1.11-1.1,.34-2.21,.35-3.31,0-.78-.24-1.14-.84-1.18-1.61-.04-.77-.02-1.54-.02-2.32,0-3.56,.02-7.11,.03-10.67,0-.3,0-.61,0-.91-.03-.02-.06-.04-.1-.05Z"/><path class="cls-2" d="M158.28,21.92c-.58-1.38-2.02-2.05-3.45-1.61-.32,.1-.63,.25-.94,.4-.44,.22-.9,.37-1.4,.4-1.27,.08-2.66-.95-2.94-2.18-.08-.36,0-.68,.26-.93,.2-.18,.42-.37,.67-.47,1.27-.53,2.51-1.15,3.86-1.47,1.55-.37,3.1-.42,4.62,.1,2.4,.82,3.79,2.56,4.42,4.95,.32,1.23,.3,2.49,.27,3.74-.05,2.17-.12,4.34,0,6.52,.03,.51,.01,1.03-.08,1.53-.16,.81-.72,1.25-1.56,1.25-.35,0-.72-.03-1.06-.12-1.29-.33-2.6-.4-3.92-.31-1.12,.08-2.24,.19-3.36,.26-.86,.05-1.72-.04-2.56-.28-1.97-.56-3.07-1.99-3.36-3.91-.45-2.98,1.64-6.27,4.9-7,1.2-.27,2.43-.41,3.65-.6,.58-.09,1.16-.14,1.74-.21,.08,0,.15-.04,.23-.06Zm-2.82,8.3c.54-.11,1.07-.17,1.58-.32,.72-.23,1.13-.77,1.27-1.51,.21-1.15-.19-1.67-1.36-1.64-.81,.02-1.61,.13-2.41,.24-.48,.07-.89,.29-1.13,.75-.19,.37-.25,.76-.22,1.17,.04,.61,.33,.99,.94,1.14,.44,.11,.89,.12,1.34,.18Z"/><path class="cls-2" d="M237.73,17.2c-.05,2.85-.1,5.61-.15,8.38,0,.3-.04,.61-.12,.91-.15,.59-.55,.93-1.16,1.02-.18,.03-.35,.05-.53,.06-.75,.02-1.49,.04-2.24,.04-1.05,0-1.58-.47-1.63-1.51-.04-.82,.01-1.64,.02-2.46,0-2.06,0-4.12,.02-6.18,.01-1.38,.09-2.77,.08-4.15,0-1.01-.12-2.02-.15-3.03-.02-.54-.03-1.1,.06-1.63,.12-.74,.59-1.24,1.32-1.46,.29-.09,.6-.17,.9-.17,.81,.01,1.62,.06,2.43,.11,.22,.02,.44,.1,.65,.18,.41,.16,.66,.47,.72,.9,.05,.32,.07,.64,.06,.96-.09,2.7-.19,5.4-.29,8.02Z"/><path class="cls-2" d="M40.4,10.85c-1.61-.08-3.05-.54-4.22-1.66-1.55-1.49-2-3.61-1.08-5.54C36.19,1.37,38.04,.07,40.62,0c2.62-.07,4.68,1.63,5.23,4.17,.22,1.02,.25,2.05-.04,3.06-.53,1.82-1.81,2.89-3.62,3.35-.58,.15-1.18,.18-1.78,.27Z"/><path class="cls-2" d="M234.64,29.32c.5,.11,1.03,.16,1.51,.35,1.78,.69,2.14,2.89,.7,4.14-.56,.49-1.23,.71-1.95,.82-.05,0-.1,.01-.14,0-.72-.21-1.45-.39-2.05-.85-.52-.4-.78-.93-.82-1.58-.09-1.7,.71-2.62,2.45-2.77,.1,0,.19-.02,.29-.03,0-.02,.01-.05,.02-.07Z"/><path class="cls-1" d="M102.89,7.96c1.04,.02,1.86,.43,2.47,1.25,.12,.16,.2,.33,.33,.47,.4,.42,.36,.85,.1,1.31-.04,.07-.07,.15-.1,.22-.94,2.05-2.9,2-4.18,1.43-.99-.44-1.44-1.29-1.33-2.4,.11-1.1,.78-1.91,1.79-2.16,.3-.07,.61-.09,.91-.14Z"/><path class="cls-2" d="M174.82,42.47c-.05,.06-.08,.1-.1,.1-.61,0-1.22,0-1.84,0,0-.05-.01-.11,0-.11,.34-.16,.42-.43,.4-.79-.03-.56,0-1.13-.01-1.69-.02-.78-.61-1.19-1.37-.97-.39,.11-.6,.36-.6,.77,0,.61,0,1.22,0,1.83,0,.53,.05,.59,.56,.75,.07,.02,.14,.06,.23,.1-.27,.13-1.31,.17-1.95,.08,0-.03-.01-.08,0-.09,.36-.17,.43-.45,.42-.82-.03-.64,0-1.29,0-1.93,0-.52-.02-.53-.53-.6-.04,0-.08-.04-.21-.1,.52-.21,.97-.39,1.45-.59,.03,.22,.05,.4,.07,.58,1.33-.67,1.73-.64,2.56,.18,.11-.09,.21-.2,.33-.28,.49-.38,1.04-.45,1.61-.27,.45,.14,.74,.47,.83,.93,.07,.34,.07,.7,.08,1.05,.01,.34,0,.68,0,1.01,.01,.5,.08,.59,.58,.75,.06,.02,.11,.04,.18,.07-.2,.14-.94,.18-1.88,.11,0-.03-.02-.08-.02-.09,.37-.2,.41-.52,.39-.89-.02-.43,0-.87,0-1.3,0-.18,0-.36-.05-.53-.2-.78-1.12-1.06-1.74-.53-.15,.13-.2,.27-.2,.46,.02,.63,.02,1.25,.02,1.88,0,.62,.04,.67,.64,.82,.04,.01,.08,.04,.15,.08Z"/><path class="cls-2" d="M118.59,42.6q.6-.46,.6-1.17c0-1.45,0-2.9,0-4.35,0-.13,0-.26,0-.39-.03-.4-.08-.44-.51-.47-.05,0-.09-.02-.14-.04,.15-.19,.91-.51,1.41-.59v3.57c.19-.14,.3-.22,.41-.3,.53-.38,1.11-.45,1.71-.18,.61,.28,.87,.8,.9,1.44,.02,.48,0,.97,0,1.45q0,.62,.64,.83c.05,.02,.1,.07,.18,.14-.37,.18-.7,.03-1.02,.05-.33,.02-.66,0-1,0,.01-.06,0-.12,.02-.12,.36-.14,.44-.41,.42-.76-.03-.53,0-1.06-.01-1.59-.01-.45-.2-.81-.62-1.01-.43-.2-.85-.16-1.25,.1-.25,.16-.39,.37-.38,.68,.01,.61,0,1.22,0,1.83,0,.48,.07,.55,.57,.68,.1,.02,.18,.08,.25,.21h-2.19Z"/><path class="cls-2" d="M191.31,42.4c-.46,.09-.92,.18-1.43,.28-.03-.2-.05-.38-.08-.6-.15,.1-.29,.18-.42,.26-.64,.42-1.31,.5-1.98,.11-.72-.41-.99-1.09-.94-1.88,.11-1.56,1.57-2.4,2.97-1.88,.1,.04,.21,.07,.39,.14,0-.38,0-.72,0-1.06,0-.32,.01-.64-.02-.96-.04-.46-.14-.54-.62-.62-.06,0-.11-.05-.25-.13,.34-.11,.59-.17,.84-.26,.24-.09,.46-.2,.76-.33,.02,.24,.05,.43,.05,.61,0,1.78,0,3.57,0,5.35,0,.13,0,.26,0,.39,.03,.32,.08,.37,.41,.42,.1,.01,.2,.05,.3,.07,0,.04,0,.07,0,.11Zm-1.48-1.79c0-.21,0-.42,0-.63,0-.63-.16-.85-.75-1.09-.36-.14-.72-.16-1.09-.05-.23,.07-.42,.19-.56,.41-.57,.85-.37,2.06,.45,2.68,.39,.3,.83,.35,1.29,.24,.42-.1,.65-.4,.67-.84,0-.24,0-.48,0-.72Z"/><path class="cls-2" d="M109.15,40.37c-.36,.7-.68,1.31-1,1.92-.04,.09-.08,.18-.13,.26-.15,.2-.34,.2-.45-.03-.13-.28-.23-.56-.35-.85-.28-.67-.56-1.33-.83-2.01-.13-.33-.29-.61-.63-.76-.03-.02-.05-.07-.12-.18,.64-.05,1.22-.01,1.82-.03-.02,.1-.02,.16-.05,.18-.43,.27-.44,.27-.27,.71,.26,.69,.54,1.38,.85,2.16,.2-.36,.36-.64,.51-.93,.16-.3,.31-.6,.45-.89-.16-.48-.3-.95-.9-1.13,.35-.28,.67-.08,.97-.09,.3-.01,.63-.12,.94,0-.03,.08-.03,.12-.05,.13-.47,.23-.48,.25-.29,.72,.27,.69,.56,1.37,.88,2.17,.33-.81,.75-1.45,.92-2.2,.1-.4,.01-.5-.38-.63-.06-.02-.11-.05-.18-.08,.2-.14,1.14-.18,1.62-.09,0,.03,.01,.08,0,.08-.36,.17-.53,.48-.68,.83-.36,.83-.75,1.64-1.12,2.46-.04,.09-.08,.17-.12,.26-.07,.15-.14,.34-.33,.29-.11-.03-.22-.17-.27-.29-.21-.47-.39-.95-.59-1.43-.07-.16-.14-.32-.24-.57Z"/><path class="cls-2" d="M135.17,42.46c0,.41-.02,.78,0,1.14,.02,.39,.14,.49,.53,.56,.12,.02,.24,.05,.39,.09-.25,.18-1.64,.22-2.17,.09,0-.03,0-.08,0-.09,.41-.14,.49-.45,.48-.84-.02-1.17,0-2.35,0-3.52,0-.7-.01-.7-.71-.85,.16-.29,.48-.22,.7-.33,.23-.12,.47-.21,.75-.34,.02,.25,.03,.47,.04,.72,.09-.05,.18-.08,.25-.13,.78-.53,1.55-.58,2.18-.15,.67,.46,.96,1.33,.74,2.19-.32,1.25-1.49,1.92-2.74,1.57-.14-.04-.27-.08-.45-.13Zm-.01-1.87s0,0,0,0c0,.27-.03,.55,0,.82,.03,.21,.11,.45,.25,.6,.61,.68,1.91,.44,2.24-.4,.28-.72,.18-1.43-.28-2.05-.41-.56-1.18-.7-1.79-.37-.28,.15-.44,.36-.43,.69,0,.24,0,.48,0,.72Z"/><path class="cls-2" d="M185.96,42.49c-.32,.11-1.52,.11-1.88,0q.37-.38,.37-1.02c0-.43,.02-.87,0-1.3-.05-.95-.99-1.46-1.83-1-.28,.15-.45,.37-.44,.69,0,.63,0,1.25,.03,1.88,.01,.44,.06,.48,.48,.59,.12,.03,.23,.06,.35,.15-.33,.13-.68,.07-1.01,.08-.35,.01-.7,0-1.05,0,0-.08,0-.13,.01-.13,.39-.17,.47-.47,.46-.86-.03-.61,0-1.22,0-1.83,0-.58,0-.58-.58-.65-.04,0-.08-.04-.21-.1,.53-.2,.99-.38,1.51-.58,.02,.26,.03,.47,.05,.74,.16-.11,.28-.2,.41-.29,1.09-.77,2.43-.17,2.55,1.15,.04,.43,.02,.87,.03,1.3,0,.16,0,.32,0,.48,.03,.37,.09,.42,.45,.53,.09,.03,.19,.05,.28,.08,.01,0,.01,.03,.04,.08Z"/><path class="cls-2" d="M96.12,38.4c.02,.27,.03,.49,.05,.78,.16-.12,.26-.2,.37-.28,.52-.39,1.09-.49,1.7-.22,.61,.27,.89,.78,.91,1.42,.02,.48,0,.96,0,1.45,0,.62,.03,.65,.64,.82,.05,.02,.1,.05,.2,.11-.35,.2-.68,.06-.98,.09-.32,.03-.64,0-.96,0,0-.07-.02-.12,0-.13,.37-.16,.43-.46,.4-.82-.03-.46,.02-.93-.01-1.4-.06-1-.98-1.53-1.83-1.06-.27,.15-.46,.36-.47,.68,0,.61,0,1.22,.02,1.83,.03,.54,.06,.55,.62,.69,.07,.02,.14,.06,.21,.09,0,0,0,.03,0,.04-.27,.1-1.67,.11-2.05,.01,0-.01,0-.04,0-.04,.44-.22,.51-.6,.48-1.05-.03-.55,0-1.09,0-1.64,0-.6,0-.6-.6-.69-.04,0-.08-.04-.21-.11,.3-.1,.53-.17,.75-.26,.24-.09,.47-.2,.75-.32Z"/><path class="cls-2" d="M130.76,42.33c-.48,.46-.82,.42-1.5-.1-.24,.12-.46,.27-.7,.33-.29,.08-.61,.12-.91,.09-.39-.03-.67-.27-.76-.65-.09-.37,0-.73,.33-.94,.26-.18,.57-.3,.88-.4,.34-.11,.69-.16,1.08-.24,0-.28,.03-.57,0-.85-.09-.57-.88-.91-1.38-.61-.19,.12-.23,.3-.21,.5,.02,.15,.05,.31,.08,.49-.12,0-.2,.03-.27,.01-.52-.1-.62-.35-.31-.78,.5-.7,1.77-.89,2.46-.37,.3,.22,.41,.53,.41,.89,0,.55,0,1.09,0,1.64,0,.13,0,.26,.01,.39,.04,.47,.12,.54,.6,.57,.05,0,.09,.02,.19,.04Zm-1.57-1.73c-.42,.14-.79,.22-1.12,.38-.31,.14-.51,.4-.46,.78,.05,.37,.3,.57,.72,.57,.48,0,.82-.22,.85-.61,.03-.33,0-.67,0-1.11Z"/><path class="cls-2" d="M161.2,42.71c-1.11-.03-1.97-.63-2.17-1.6-.16-.74,.02-1.4,.58-1.94,.73-.7,1.91-.85,2.8-.35,.79,.44,1.18,1.22,1.07,2.1-.1,.78-.72,1.45-1.56,1.67-.23,.06-.48,.08-.72,.12Zm-1.47-2.33c.01,.66,.22,1.24,.72,1.69,.4,.36,.88,.47,1.4,.3,.5-.17,.73-.56,.83-1.04,.03-.13,.04-.26,.04-.38,0-.68-.12-1.32-.65-1.8-.75-.69-1.93-.39-2.24,.58-.07,.21-.07,.44-.11,.66Z"/><path class="cls-2" d="M145.95,42.23c-.3,.14-.54,.28-.8,.35-.26,.07-.54,.1-.81,.08-.36-.03-.66-.23-.76-.59-.11-.38-.05-.75,.29-1,.19-.14,.41-.26,.64-.33,.43-.13,.88-.22,1.37-.35-.01-.24,0-.49-.04-.74-.09-.59-.57-.89-1.17-.77-.34,.07-.47,.24-.43,.58,.02,.14,.05,.28,.08,.43-.17,.15-.34,.08-.5,.01-.28-.12-.33-.26-.18-.54,.17-.33,.43-.56,.78-.7,.51-.19,1.02-.19,1.52,0,.44,.17,.66,.49,.66,.97,0,.55,0,1.09,0,1.64,0,.14,0,.29,.02,.43,.06,.48,.15,.55,.65,.58,.04,0,.08,.03,.13,.05-.39,.46-.83,.42-1.44-.11Zm-.08-1.6c-.35,.09-.64,.13-.9,.23-.2,.08-.4,.21-.55,.38-.28,.32-.19,.8,.16,1,.52,.3,1.22-.02,1.28-.62,.03-.3,0-.6,0-.99Z"/><path class="cls-2" d="M91.18,40.21c-.1,.79,.27,1.49,.9,1.81,.73,.38,1.34,.02,2.01-.28-.04,.09-.05,.2-.11,.27-.55,.6-1.59,.84-2.34,.55-.75-.28-1.25-1.03-1.27-1.89-.02-.84,.51-1.68,1.28-2,1.11-.47,2.36,.29,2.4,1.48-.46,.17-.95,.03-1.43,.05-.47,.02-.94,0-1.44,0Zm1.99-.34c-.02-.64-.48-1.08-1.05-1.07-.54,.02-.9,.44-.91,1.07h1.95Z"/><path class="cls-2" d="M142.87,41.77c-.02,.06-.04,.12-.07,.17-.52,.63-1.57,.91-2.35,.64-.78-.27-1.28-1.03-1.3-1.91-.01-.63,.21-1.16,.67-1.6,.52-.5,1.14-.67,1.83-.45,.7,.22,1.04,.77,1.2,1.43-.19,.23-.43,.17-.65,.17-.65,0-1.3-.01-1.95-.02-.11,0-.22,.01-.33,.02-.1,.73,.28,1.46,.9,1.79,.74,.4,1.36,.02,1.99-.33,.02,.03,.04,.06,.06,.09Zm-.91-1.91c-.08-.67-.51-1.08-1.06-1.07-.54,0-.9,.41-.94,1.1,.66-.01,1.31,.03,2-.03Z"/><path class="cls-2" d="M155.75,41.77s0,.1-.03,.13c-.55,.61-1.24,.88-2.05,.75-.78-.12-1.29-.6-1.52-1.33-.26-.84-.11-1.62,.55-2.26,.52-.5,1.14-.67,1.84-.45,.71,.22,1.03,.77,1.21,1.42-.19,.25-.44,.18-.65,.18-.65,0-1.3-.01-1.95-.02-.11,0-.22,.01-.33,.02-.12,.69,.27,1.46,.89,1.78,.74,.39,1.36,.03,1.99-.34,.02,.03,.04,.07,.05,.1Zm-2.91-1.88c.62,0,1.2,0,1.78,0,.07,0,.15-.04,.22-.06-.04-.59-.48-1.02-1.02-1.02-.54,0-.9,.37-.98,1.09Z"/><path class="cls-2" d="M164.89,38.67c.05-.31,.09-.6,.15-.88,.18-.77,.59-1.39,1.26-1.82,.31-.2,.65-.29,1.02-.26,.3,.03,.36,.11,.27,.41-.04,.13-.11,.26-.19,.45-.24-.29-.48-.41-.8-.36-.42,.07-.65,.33-.79,.7-.21,.56-.19,1.13-.17,1.7,.45,.11,.72,.1,1.19-.04,.02,.42-.06,.53-.43,.54-.23,0-.45,0-.71,0-.02,.13-.05,.24-.05,.34,0,.74,0,1.48,0,2.22,0,.52,.04,.56,.55,.69,.07,.02,.13,.06,.18,.14-.63,.09-1.26,.04-1.88,.09,0-.09-.02-.14,0-.14,.39-.17,.44-.5,.44-.87,0-.8,0-1.6,0-2.43-.26-.02-.48-.04-.7-.06q0-.38,.67-.43Z"/><path class="cls-2" d="M115.96,39.18c-.21-.02-.37-.04-.57-.06,.12-.36,.45-.47,.64-.71,.18-.24,.39-.46,.66-.77v1.01c.54,.03,1.04,.06,1.55-.1-.09,.56-.12,.59-.58,.59-.26,0-.52,0-.78,0-.03,0-.06,.01-.13,.03-.01,.09-.04,.2-.04,.3,0,.67,0,1.35,0,2.02,0,.66,.36,.92,1.01,.76,.18-.04,.35-.12,.64-.22-.11,.17-.15,.28-.21,.31-.26,.12-.53,.26-.81,.3-.87,.13-1.37-.3-1.38-1.18-.01-.75,0-1.51,0-2.31Z"/><path class="cls-2" d="M151.55,41.81s0,.1-.02,.13c-.54,.61-1.23,.82-2.02,.72-.7-.09-1.2-.48-1.47-1.12-.51-1.19,.22-2.62,1.49-2.94,.44-.11,.87-.1,1.3,.01,.38,.09,.43,.16,.44,.57,0,.11,0,.23,0,.34,0,.04-.04,.08-.09,.15-.08-.06-.15-.11-.22-.17-.19-.15-.35-.34-.56-.45-.79-.42-1.52-.09-1.72,.76-.15,.63-.07,1.25,.35,1.79,.5,.64,1.28,.79,2,.4,.14-.08,.28-.16,.42-.23,.02,0,.06,.02,.1,.04Z"/><path class="cls-2" d="M101.68,39.15c0,.89-.01,1.71,0,2.53,0,.42,.22,.63,.65,.62,.3,0,.59-.11,.94-.18-.06,.1-.08,.2-.14,.24-.42,.29-.88,.4-1.39,.3-.44-.09-.72-.36-.77-.82-.04-.4-.04-.8-.05-1.2,0-.48,0-.96,0-1.45-.2-.03-.36-.05-.55-.07,.1-.35,.43-.45,.61-.68,.19-.24,.39-.46,.61-.72,.2,.31,.02,.62,.13,.97,.48-.02,.97-.04,1.46-.06-.02,.45-.1,.53-.53,.53-.31,0-.62,0-.98,0Z"/><path class="cls-2" d="M87.06,42.49c.54-.13,.56-.5,.55-.91-.01-.56,0-1.13,0-1.69,0-.61-.06-.67-.68-.76-.06,0-.11-.05-.26-.12,.34-.11,.6-.18,.85-.27,.24-.09,.47-.21,.78-.35,.02,.31,.03,.57,.04,.88,.2-.2,.35-.38,.54-.53,.34-.28,.62-.28,.97-.02,.29,.21,.31,.32,.07,.58-.06,.07-.15,.12-.23,.19-.11-.05-.21-.1-.31-.15-.54-.24-.99,.02-1.03,.61-.03,.45,0,.9,0,1.35,0,.19,0,.39,.03,.58,.05,.36,.16,.45,.54,.5,.11,.01,.22,.03,.39,.06-.07,.09-.11,.18-.15,.18-.65,0-1.29,0-1.94,0-.02,0-.05-.04-.14-.13Z"/><path class="cls-2" d="M179.46,38.39c0,.25,0,.41,0,.56,0,.88,0,1.77,0,2.65,0,.63,.04,.73,.65,.77,.05,0,.11,.05,.22,.12-.39,.21-.74,.04-1.07,.08-.33,.03-.66,0-1.03,0q.48-.51,.48-1.29c0-.48,0-.96,0-1.45q0-.63-.67-.83c.28-.12,.49-.22,.7-.31,.21-.09,.41-.18,.72-.32Z"/><path class="cls-2" d="M114.97,42.57c-.09,.01-.18,.03-.27,.03-.57,0-1.14-.02-1.75-.07,.55-.24,.49-.69,.49-1.12,0-.51,0-1.03,0-1.54,0-.64,0-.64-.67-.87,.48-.21,.89-.39,1.36-.59,.02,.16,.04,.28,.04,.4,0,.93,0,1.86,0,2.79,0,.63,0,.63,.65,.77,.05,.01,.1,.06,.15,.08,0,.04-.01,.07-.02,.11Z"/><path class="cls-2" d="M179.57,37.11c-.13,.22-.24,.53-.53,.45-.17-.04-.31-.29-.4-.48-.06-.12,.3-.51,.45-.5,.32,.02,.37,.3,.49,.52Z"/><path class="cls-2" d="M113.84,37.64c-.12-.08-.22-.13-.3-.21-.28-.29-.16-.73,.23-.82,.09-.02,.25,.06,.32,.14,.12,.14,.29,.3,.13,.51-.1,.14-.24,.25-.38,.38Z"/></svg>