<?xml version="1.0" encoding="UTF-8"?>
<svg id="Layer_1" data-name="Layer 1" xmlns="http://www.w3.org/2000/svg" viewBox="0 0 323.68 193.49">
  <defs>
    <style>
      .cls-1 {
        fill: #fff;
      }

      .cls-2 {
        fill: #fec147;
      }

      .cls-3 {
        fill: none;
      }
    </style>
  </defs>
  <rect class="cls-3" width="323.68" height="193.49"/>
  <path class="cls-1" d="M66.62,93.66c-.12-1.47-2.79-1.69-1.88-2.99,1.68-2.39,3.72-4.63,5.69-6.88,.49-.56,1.4-.88,1.95-1.42,2.35-2.26,4.92-2.48,7.7-.62,1.72,1.16,3.65,2.16,5.12,3.49,3.68,3.31,8.75,3.71,13.63,4.83,5.71,1.31,8.16,5.4,7.01,9.46-.5,1.74-1.57,2.03-3.36,2.18-6.7,.57-10.46,3.21-12.1,8.39-1.32,4.16-3.8,5.93-9.2,6.22-4.17,.22-8.36,.16-12.53,.33-2.09,.09-2.77-.36-2.75-2.19,.09-8.9-4.11-12.41-15.23-12.96-2.21-.11-4.27-.5-4.17-2.57,.09-1.93,2.32-2.16,4.22-2.27,1.25-.08,2.57-.06,3.79,.15,3.05,.53,5.49,.16,6.96-2.33,1.34-2.26,3.04-2.54,5.01-.05,.11-.28,.15-.53,.13-.74m2.99,1.9c-.07-.03-.14-.06-.21-.1,1.71,1.7,3.79,1.62,5.98,1.37,2.91-.33,6.48-.78,8.47,.71,3.36,2.54,5.09,.29,7.28-.78,1.49-.72,2.07-1.62,0-2.61-2.01-.96-3.63-2.32-5.3-3.66-5.23-4.2-5.31-4.12-9.37,1.11-.6,.77-1.32,1.49-2.01,2.21-1.18,1.24-2.13,2.94-4.84,1.74"/>
  <path class="cls-1" d="M115,113.12c.05,5.68-4.91,10.03-11.43,10.06-6.59,.02-12.26-4.59-12.4-10.08-.13-5.23,5.48-9.72,12.16-9.74,6.97-.01,11.62,3.88,11.67,9.76Z"/>
  <path class="cls-1" d="M52.36,103.19c6.91,0,11.57,3.99,11.55,9.9-.02,5.74-5.01,9.95-11.65,9.93-6.87-.02-11.15-4.63-11.39-9.87-.27-5.82,4.68-9.95,11.49-9.96Z"/>
  <path class="cls-1" d="M163.15,77.93c1.39-2.39,3.99-.68,5.95-1.12l-.03-.02c.04,4.9,.09,9.8,.13,14.7-.05,1.83-.33,3.69-.09,5.5,.32,2.37-.8,3.21-3.58,2.77-1.96-.31-3.85-.07-5.82,.03-3.37,.18-6.47-.95-8.14-3.61-1.96-3.12-1.81-6.32,.55-9.18,1.95-2.36,5.02-3.55,8.6-2.68,2.1,.51,2.8,.22,2.66-1.52-.13-1.62-.16-3.25-.23-4.87Zm-7.05,14.31c-.13,2.09,.49,4.08,3.82,4.09,3.07,0,3.82-1.86,3.86-3.99,.05-2.24-.26-4.63-3.67-4.72-3.37-.09-4.11,2.14-4.01,4.63Z"/>
  <path class="cls-1" d="M142.77,85.95c-1.11,.79-1.36,1.71-3.23,1.55-2.83-.25-3.97,1.37-4.02,3.49-.04,2.14-.15,4.29,0,6.42,.12,1.68-.47,2.32-2.7,2.3-2.16-.02-2.82-.55-2.74-2.28,.17-3.77,.07-7.54,.11-11.31,0-.75-.34-1.81,1.24-1.81,3.23,0,6.47,.08,9.7,.15,.36,0,.74,.2,1.08,.16,1.98-.24,4.55-1.01,5.77,.1,1.43,1.3,.42,3.49,.48,5.3,.08,2.34-.1,4.69,.02,7.03,.09,1.78-.18,2.74-2.97,2.72-2.97-.02-2.86-1.28-2.82-2.91,.07-3.64,.05-7.28,.07-10.92Z"/>
  <path class="cls-1" d="M171.17,90.85c.6-3.88,3.64-6.4,8.01-6.66,5.07-.3,8.89,1.79,10.25,5.62,1.02,2.85,.4,3.53-3.25,3.57-.63,0-1.25,.06-1.88,.09-2.53-.02-5.09-.46-7.72,.25,3.09,3.35,4.08,3.45,7.78,.98,1.15,1.01,4.13,.98,3.48,2.86-.57,1.65-3.04,1.95-5.03,2.19-1.46,.18-2.98,.07-4.47,.08-5.64-1.31-7.52-4.58-7.18-8.98Zm9.46-.77c.79-.54,2.57,.55,2.77-.74,.18-1.2-1.39-1.51-2.74-1.5-1.29,.01-3.01,.12-3.05,1.26-.06,1.67,1.92,.49,3.02,.98Z"/>
  <path class="cls-1" d="M81.55,79.68c-3.11-.13-5.45-2.03-5.47-4.42-.02-2.66,3.09-5.07,6.36-4.94,3.25,.14,5.41,2.4,5.14,5.4-.22,2.49-2.67,4.1-6.03,3.96Z"/>
  <path class="cls-1" d="M148.66,79.24c-.57,1.58-1.53,2.42-3.31,2.33-1.79-.09-2.82-1.05-2.64-2.37,.15-1.11,1.1-1.98,2.85-1.93,1.87,.05,2.44,1.1,3.1,1.97Z"/>
  <path class="cls-1" d="M222.23,93c-1.09,2.11-2.13,3.78-2.77,5.54-.37,1.01-.97,1.37-2.08,1.36-1.11,0-2.15,.07-2.67-1.16-1.83-4.34-3.85-8.62-5.79-12.93-.32-.72-.01-1.31,.96-1.22,1.58,.14,3.69-.87,4.54,1.13,.83,1.96,1.62,3.93,2.73,6.63,1-2.46,1.71-4.29,2.49-6.1,.41-.95,.81-1.83,2.56-1.72,1.58,.11,2.42,.31,2.79,1.79,.53,2.12,1.62,4.15,2.53,6.36,.61-1.67,1.44-3.23,1.73-4.86,.64-3.54,3.29-3.68,6.85-2.9-2.04,4.4-4.09,8.69-6,13.02-.5,1.13-.85,2.05-2.67,2.04-1.73,0-2.32-.73-2.77-1.95-.58-1.59-1.48-3.1-2.44-5.03Z"/>
  <path class="cls-1" d="M255.53,85.01c7.43-2.14,6.49,3.65,9.32,6.46,1.05-1.95,1.88-3.57,2.8-5.16,.45-.78,.75-1.83,2.33-1.57,1.18,.19,2.69-.54,3.52,.49,.72,.9-.4,1.72-.79,2.52-2.19,4.49-4.43,8.95-6.71,13.41-1.29,2.51-2.27,5.21-5.94,6.32-2.13,.64-3.81-.21-5.23-1.13-1.25-.81,.39-1.83,.42-2.8,.02-.7,.63-.69,1.33-.69,3.77,0,6.12-3.28,4.61-6.37-1.89-3.85-3.78-7.7-5.64-11.48Z"/>
  <path class="cls-1" d="M237.79,87.01c2.76-2.28,6.03-3.01,9.72-2.54,3.48,.45,5.45,2.41,5.47,5.27,.02,2.44-.01,4.89-.03,7.33-.02,2.95-1.47,4.01-4.69,2.76-1.42-.55-2.21-.18-3.23-.01-4.27,.71-7.56-.52-8.15-3.1-.78-3.41,1.64-6.06,5.86-6.83,1.36-.25,4.16,.8,3.88-.89-.28-1.72-2.74-.76-4.43-.43-1.75,.34-2.99-.7-4.41-1.55Zm7.59,6.63c-1.3,.18-3.11-.16-3.12,1.74,0,1.15,.9,1.3,2,1.28,1.64-.03,3.06-.35,3.28-1.92,.19-1.37-1.14-.99-2.16-1.1Z"/>
  <path class="cls-1" d="M201.85,89.37c-1.14-1.69-2.77-1.9-4.46-1.13-2.17,.98-3.71-.03-4.37-1.2-.75-1.32,1.42-1.67,2.46-2.08,6.28-2.5,11.76,.25,11.73,5.78-.01,2.35-.17,4.7,.02,7.04,.15,1.86-.9,2.51-2.86,2.07-2.24-.5-4.33-.22-6.55-.05-2.85,.21-5.73-.34-6.6-3-.91-2.78,1.29-5.87,4.62-6.63,1.87-.43,3.87-.52,6.01-.79Zm-2.18,4.17c-1.04,.26-2.98-.19-3.11,1.61-.09,1.3,1.14,1.4,2.32,1.37,1.45-.04,2.76-.31,2.96-1.75,.17-1.18-.75-1.32-2.17-1.23Z"/>
  <path class="cls-1" d="M276.64,85.29c0-1.94,.27-3.91-.04-5.81-.45-2.75,1.06-3.27,4.04-3.03,1.57,.12,2.24,.36,2.17,1.74-.23,4.79-.38,9.58-.45,14.37-.03,2.22-1.97,1.56-3.48,1.71-1.9,.18-2.38-.51-2.31-1.92,.12-2.34,.05-4.7,.06-7.04Z"/>
  <path class="cls-1" d="M279.54,100.38c-1.34-.34-2.86-.65-2.94-2.21-.08-1.52,1.01-2.27,2.76-2.32,1.74-.05,3.13,.8,3.16,2.1,.03,1.2-1.02,2.27-2.98,2.43Z"/>
  <path class="cls-2" d="M169.07,76.78s.03,.02,.03,.02c-.04-.2-.13-.4-.11-.59"/>
</svg>