<?xml version="1.0" encoding="utf-8"?>
<!-- Generator: Adobe Illustrator 27.0.1, SVG Export Plug-In . SVG Version: 6.00 Build 0)  -->
<svg version="1.1" id="Layer_1" xmlns="http://www.w3.org/2000/svg" xmlns:xlink="http://www.w3.org/1999/xlink" x="0px" y="0px"
	 viewBox="0 0 250 150" style="enable-background:new 0 0 250 150;" xml:space="preserve">
<style type="text/css">
	.st0{fill:none;}
	.st1{fill:#442D80;}
	.st2{fill:#ED1F79;}
	.st3{fill:#FEC147;}
</style>
<g>
	<rect x="-29.36" y="-17.62" class="st0" width="308.72" height="185.24"/>
	<path class="st1" d="M34.18,72.04c-0.12-1.41-2.66-1.62-1.79-2.86c1.61-2.29,3.55-4.43,5.43-6.59c0.47-0.54,1.33-0.85,1.86-1.36
		c2.24-2.16,4.7-2.38,7.34-0.59c1.64,1.11,3.48,2.07,4.89,3.34c3.51,3.17,8.35,3.55,13,4.62c5.44,1.26,7.79,5.17,6.68,9.05
		c-0.47,1.67-1.5,1.94-3.2,2.09c-6.39,0.55-9.97,3.08-11.54,8.03c-1.26,3.98-3.63,5.68-8.77,5.95c-3.98,0.21-7.97,0.15-11.95,0.32
		c-2,0.09-2.64-0.34-2.62-2.1c0.08-8.52-3.92-11.88-14.52-12.41c-2.1-0.1-4.07-0.48-3.98-2.46c0.08-1.85,2.21-2.06,4.02-2.18
		c1.2-0.07,2.45-0.06,3.61,0.14c2.91,0.51,5.24,0.15,6.64-2.23c1.28-2.17,2.9-2.43,4.78-0.05C34.16,72.49,34.2,72.25,34.18,72.04
		 M37.04,73.86c-0.07-0.03-0.14-0.06-0.2-0.1c1.63,1.63,3.61,1.55,5.71,1.31c2.77-0.32,6.18-0.75,8.08,0.68
		c3.21,2.43,4.85,0.28,6.95-0.74c1.42-0.69,1.98-1.55,0-2.5c-1.91-0.91-3.46-2.22-5.06-3.5c-4.99-4.02-5.06-3.95-8.94,1.07
		c-0.57,0.74-1.26,1.43-1.92,2.12C40.52,73.39,39.62,75.01,37.04,73.86"/>
	<path class="st1" d="M80.32,90.68c0.04,5.43-4.68,9.61-10.9,9.63c-6.29,0.02-11.7-4.39-11.82-9.65c-0.12-5.01,5.23-9.31,11.6-9.32
		C75.84,81.32,80.27,85.04,80.32,90.68z"/>
	<path class="st1" d="M20.58,81.17c6.59-0.01,11.03,3.82,11.02,9.48c-0.02,5.49-4.78,9.52-11.11,9.5
		c-6.56-0.02-10.64-4.43-10.87-9.45C9.36,85.13,14.08,81.18,20.58,81.17z"/>
	<path class="st2" d="M126.25,56.98c1.33-2.29,3.8-0.65,5.67-1.07l-0.03-0.02c0.04,4.69,0.08,9.38,0.13,14.08
		c-0.05,1.76-0.32,3.53-0.08,5.26c0.3,2.27-0.77,3.07-3.42,2.65c-1.87-0.3-3.68-0.07-5.55,0.03c-3.22,0.17-6.17-0.91-7.76-3.45
		c-1.87-2.98-1.73-6.05,0.53-8.79c1.86-2.26,4.79-3.4,8.2-2.57c2,0.49,2.67,0.21,2.54-1.45C126.34,60.1,126.32,58.54,126.25,56.98z
		 M119.53,70.68c-0.12,2,0.46,3.9,3.64,3.91c2.93,0.01,3.64-1.79,3.69-3.82c0.04-2.14-0.24-4.43-3.5-4.52
		C120.14,66.16,119.43,68.29,119.53,70.68z"/>
	<path class="st2" d="M106.81,64.67c-1.06,0.76-1.3,1.64-3.08,1.48c-2.7-0.24-3.79,1.31-3.83,3.34c-0.04,2.05-0.14,4.1,0,6.15
		c0.11,1.61-0.45,2.22-2.58,2.2c-2.06-0.02-2.69-0.52-2.61-2.18c0.16-3.61,0.06-7.22,0.11-10.83c0.01-0.72-0.32-1.73,1.18-1.73
		c3.08,0,6.17,0.08,9.25,0.14c0.35,0.01,0.71,0.2,1.03,0.15c1.89-0.23,4.34-0.97,5.5,0.1c1.36,1.24,0.4,3.35,0.46,5.07
		c0.07,2.24-0.1,4.49,0.02,6.73c0.09,1.7-0.17,2.62-2.83,2.61c-2.84-0.02-2.72-1.22-2.69-2.79
		C106.81,71.64,106.79,68.15,106.81,64.67z"/>
	<path class="st2" d="M133.9,69.36c0.57-3.71,3.47-6.13,7.64-6.38c4.84-0.29,8.48,1.71,9.78,5.38c0.97,2.73,0.38,3.38-3.1,3.42
		c-0.6,0.01-1.2,0.06-1.79,0.09c-2.41-0.02-4.86-0.44-7.37,0.24c2.95,3.21,3.89,3.31,7.42,0.94c1.09,0.97,3.94,0.94,3.32,2.73
		c-0.55,1.58-2.9,1.87-4.79,2.1c-1.4,0.17-2.84,0.06-4.26,0.08C135.36,76.7,133.57,73.58,133.9,69.36z M142.93,68.63
		c0.75-0.52,2.45,0.52,2.64-0.71c0.17-1.15-1.33-1.45-2.61-1.44c-1.23,0.01-2.87,0.12-2.91,1.21
		C139.99,69.29,141.88,68.16,142.93,68.63z"/>
	<path class="st1" d="M48.42,58.66c-2.97-0.13-5.2-1.94-5.22-4.23c-0.02-2.55,2.94-4.86,6.06-4.72c3.1,0.13,5.16,2.29,4.9,5.17
		C53.96,57.26,51.62,58.8,48.42,58.66z"/>
	<path class="st2" d="M112.43,58.24c-0.55,1.52-1.46,2.32-3.16,2.23c-1.7-0.09-2.69-1.01-2.52-2.27c0.14-1.06,1.05-1.9,2.72-1.85
		C111.25,56.4,111.8,57.4,112.43,58.24z"/>
	<path class="st1" d="M182.6,71.42c-1.04,2.02-2.03,3.62-2.65,5.31c-0.35,0.96-0.92,1.31-1.98,1.3c-1.06-0.01-2.05,0.07-2.55-1.11
		c-1.75-4.15-3.67-8.26-5.52-12.38c-0.31-0.69-0.01-1.25,0.92-1.17c1.51,0.14,3.52-0.84,4.33,1.08c0.8,1.88,1.55,3.76,2.61,6.35
		c0.95-2.35,1.63-4.11,2.38-5.84c0.39-0.91,0.77-1.76,2.44-1.64c1.5,0.1,2.31,0.3,2.66,1.71c0.51,2.03,1.54,3.97,2.41,6.09
		c0.58-1.6,1.37-3.09,1.65-4.65c0.61-3.39,3.14-3.52,6.54-2.78c-1.95,4.21-3.9,8.32-5.72,12.46c-0.47,1.08-0.81,1.96-2.55,1.96
		c-1.65,0-2.22-0.7-2.64-1.86C184.37,74.72,183.51,73.27,182.6,71.42z"/>
	<path class="st1" d="M214.36,63.77c7.09-2.04,6.19,3.5,8.89,6.19c1-1.87,1.79-3.42,2.67-4.94c0.43-0.75,0.72-1.75,2.22-1.5
		c1.13,0.18,2.56-0.52,3.35,0.47c0.69,0.86-0.38,1.64-0.76,2.41c-2.09,4.29-4.23,8.57-6.4,12.84c-1.23,2.4-2.17,4.99-5.67,6.05
		c-2.03,0.62-3.64-0.2-4.99-1.08c-1.19-0.78,0.37-1.76,0.4-2.68c0.02-0.67,0.6-0.66,1.27-0.66c3.6-0.01,5.84-3.14,4.39-6.1
		C217.94,71.07,216.13,67.39,214.36,63.77z"/>
	<path class="st1" d="M197.44,65.68c2.63-2.18,5.75-2.88,9.27-2.43c3.32,0.43,5.2,2.3,5.22,5.04c0.02,2.34-0.01,4.68-0.03,7.02
		c-0.02,2.82-1.4,3.84-4.47,2.64c-1.35-0.53-2.1-0.18-3.08-0.01c-4.07,0.68-7.21-0.49-7.77-2.97c-0.74-3.26,1.57-5.8,5.59-6.54
		c1.3-0.24,3.97,0.77,3.7-0.85c-0.27-1.64-2.62-0.73-4.22-0.41C199.98,67.49,198.79,66.49,197.44,65.68z M204.68,72.03
		c-1.24,0.18-2.97-0.15-2.98,1.66c-0.01,1.1,0.86,1.24,1.91,1.23c1.57-0.03,2.92-0.34,3.13-1.84
		C206.92,71.77,205.64,72.14,204.68,72.03z"/>
	<path class="st1" d="M163.16,67.94c-1.08-1.62-2.64-1.81-4.26-1.08c-2.07,0.94-3.54-0.03-4.17-1.15c-0.71-1.26,1.36-1.6,2.35-1.99
		c5.99-2.39,11.21,0.24,11.19,5.53c-0.01,2.25-0.16,4.5,0.01,6.74c0.14,1.79-0.86,2.4-2.72,1.98c-2.13-0.48-4.13-0.21-6.25-0.05
		c-2.71,0.2-5.47-0.33-6.3-2.87c-0.87-2.66,1.23-5.62,4.41-6.35C159.22,68.28,161.12,68.2,163.16,67.94z M161.08,71.93
		c-0.99,0.25-2.84-0.19-2.97,1.54c-0.09,1.24,1.09,1.34,2.21,1.31c1.38-0.04,2.63-0.3,2.82-1.68
		C163.31,71.97,162.43,71.84,161.08,71.93z"/>
	<path class="st1" d="M234.5,64.03c0.01-1.86,0.26-3.74-0.03-5.56c-0.42-2.63,1.01-3.13,3.85-2.9c1.5,0.12,2.13,0.35,2.07,1.66
		c-0.21,4.58-0.36,9.17-0.43,13.76c-0.03,2.13-1.88,1.49-3.32,1.63c-1.81,0.18-2.27-0.49-2.2-1.84
		C234.56,68.53,234.49,66.28,234.5,64.03z"/>
	<path class="st1" d="M237.26,78.48c-1.28-0.32-2.72-0.63-2.81-2.12c-0.08-1.45,0.96-2.17,2.64-2.22c1.66-0.05,2.98,0.77,3.02,2.01
		C240.14,77.3,239.14,78.32,237.26,78.48z"/>
	<path class="st3" d="M131.89,55.89c0,0,0.03,0.02,0.03,0.02c-0.04-0.19-0.12-0.38-0.1-0.57"/>
	<g>
		<path d="M96.13,83.93v1.57h-0.7v-3.78h1.48c0.25,0,0.46,0.01,0.64,0.02c0.18,0.01,0.34,0.03,0.48,0.06
			c0.4,0.07,0.7,0.19,0.91,0.37c0.21,0.17,0.32,0.39,0.32,0.65c0,0.15-0.04,0.29-0.11,0.41c-0.07,0.12-0.18,0.23-0.31,0.31
			c-0.13,0.09-0.29,0.16-0.48,0.22c-0.19,0.06-0.39,0.1-0.62,0.12v0.01l1.69,1.62h-0.7l-1.76-1.57H96.13z M96.13,82.13v1.39h0.69
			c0.21,0,0.4,0,0.55-0.01c0.15-0.01,0.29-0.03,0.41-0.05c0.24-0.05,0.43-0.13,0.56-0.23s0.2-0.25,0.2-0.42
			c0-0.16-0.07-0.29-0.19-0.39c-0.12-0.1-0.29-0.17-0.51-0.21c-0.1-0.02-0.23-0.04-0.37-0.05c-0.14-0.01-0.32-0.01-0.54-0.01H96.13z
			"/>
		<path d="M101.31,85.08h2.93v0.42h-3.63v-3.78h3.47v0.42h-2.78v1.22h2.47v0.42h-2.47V85.08z"/>
		<path d="M108.38,83.82c0.35,0.33,0.7,0.68,1.04,1.03h0.03c-0.04-0.37-0.06-0.74-0.06-1.13v-2.01h0.7v3.78h-0.7l-2.25-2.11
			c-0.39-0.37-0.73-0.71-1.04-1.03h-0.03c0.04,0.35,0.06,0.75,0.06,1.21v1.93h-0.7v-3.78h0.69L108.38,83.82z"/>
		<path d="M113.6,85.5h-0.7v-3.37h-1.91v-0.42h4.52v0.42h-1.91V85.5z"/>
		<path d="M120.8,82.34c-0.05,0.17-0.15,0.48-0.32,0.91l-0.89,2.25h-0.71l-1.75-3.78h0.7l0.98,2.22c0.16,0.36,0.29,0.68,0.4,0.96
			h0.02c0.06-0.18,0.12-0.35,0.18-0.51c0.07-0.17,0.13-0.31,0.18-0.44l0.87-2.23h0.7l0.86,2.23c0.21,0.54,0.33,0.85,0.36,0.96h0.02
			c0.1-0.26,0.23-0.58,0.4-0.96l0.98-2.22h0.7l-1.75,3.78h-0.71l-0.88-2.25c-0.16-0.42-0.27-0.72-0.32-0.91H120.8z"/>
		<path d="M125.41,85.5v-3.78h0.7v3.78H125.41z"/>
		<path d="M129.62,85.5h-0.7v-3.37h-1.91v-0.42h4.52v0.42h-1.91V85.5z"/>
		<path d="M133.13,83.35h3v-1.64h0.7v3.78h-0.7v-1.73h-3v1.73h-0.7v-3.78h0.7V83.35z"/>
		<path d="M139.07,85.5l2.33-3.78h0.6l2.33,3.78h-0.76l-0.68-1.14h-2.39l-0.68,1.14H139.07z M141.69,82.3
			c-0.26,0.47-0.5,0.9-0.73,1.28l-0.21,0.36h1.9l-0.22-0.36c-0.23-0.39-0.47-0.82-0.72-1.28H141.69z"/>
		<path d="M147.66,85.5h-0.7v-3.78h1.58c0.24,0,0.46,0.01,0.66,0.03c0.2,0.02,0.39,0.05,0.55,0.09c0.34,0.08,0.6,0.2,0.78,0.36
			c0.18,0.16,0.26,0.36,0.26,0.6c0,0.19-0.06,0.36-0.17,0.51c-0.12,0.15-0.28,0.27-0.5,0.37c-0.22,0.1-0.49,0.17-0.8,0.22
			c-0.31,0.05-0.67,0.07-1.07,0.07c-0.19,0-0.39-0.01-0.59-0.02V85.5z M147.66,83.52c0.09,0.01,0.19,0.01,0.3,0.02
			c0.1,0,0.2,0.01,0.29,0.01c0.33,0,0.61-0.02,0.84-0.05c0.23-0.03,0.42-0.08,0.56-0.15c0.15-0.07,0.25-0.14,0.32-0.24
			s0.1-0.2,0.1-0.32c0-0.15-0.05-0.27-0.16-0.36c-0.11-0.09-0.26-0.17-0.46-0.22c-0.12-0.03-0.26-0.05-0.42-0.06
			c-0.16-0.01-0.35-0.02-0.56-0.02h-0.81V83.52z"/>
		<path d="M152.65,85.08h2.93v0.42h-3.63v-3.78h3.47v0.42h-2.78v1.22h2.47v0.42h-2.47V85.08z"/>
		<path d="M156.21,85.5l2.33-3.78h0.6l2.33,3.78h-0.76l-0.68-1.14h-2.39l-0.68,1.14H156.21z M158.83,82.3
			c-0.26,0.47-0.5,0.9-0.73,1.28l-0.21,0.36h1.9l-0.22-0.36c-0.23-0.39-0.47-0.82-0.72-1.28H158.83z"/>
		<path d="M165.03,82.05c-0.32,0-0.62,0.03-0.9,0.1c-0.28,0.07-0.52,0.17-0.73,0.3c-0.21,0.13-0.37,0.3-0.48,0.5
			c-0.12,0.2-0.18,0.43-0.18,0.69c0,0.26,0.05,0.49,0.16,0.68c0.11,0.19,0.27,0.35,0.47,0.48c0.2,0.13,0.45,0.22,0.73,0.28
			c0.28,0.06,0.6,0.09,0.95,0.09c0.1,0,0.2,0,0.3-0.01s0.21-0.02,0.32-0.03c0.11-0.01,0.21-0.03,0.32-0.04
			c0.1-0.02,0.19-0.03,0.27-0.05v0.41c-0.17,0.04-0.36,0.08-0.59,0.1c-0.22,0.02-0.45,0.04-0.68,0.04c-0.48,0-0.9-0.04-1.27-0.13
			c-0.37-0.09-0.68-0.21-0.93-0.38c-0.25-0.16-0.44-0.36-0.57-0.6c-0.13-0.24-0.19-0.5-0.19-0.8c0-0.29,0.07-0.56,0.2-0.81
			c0.14-0.25,0.33-0.46,0.59-0.64c0.26-0.18,0.56-0.32,0.93-0.41c0.36-0.1,0.77-0.15,1.23-0.15c0.12,0,0.24,0,0.35,0.01
			c0.12,0.01,0.23,0.02,0.34,0.03c0.11,0.01,0.21,0.03,0.3,0.04c0.09,0.02,0.17,0.03,0.24,0.05v0.41c-0.17-0.04-0.36-0.07-0.57-0.09
			C165.44,82.07,165.24,82.05,165.03,82.05z"/>
		<path d="M168.12,85.08h2.93v0.42h-3.63v-3.78h3.47v0.42h-2.78v1.22h2.47v0.42h-2.47V85.08z"/>
		<path d="M178.78,83.61c0,0.29-0.06,0.55-0.19,0.79c-0.12,0.24-0.3,0.45-0.53,0.62c-0.23,0.17-0.51,0.31-0.84,0.41
			c-0.33,0.1-0.69,0.15-1.1,0.15c-0.42,0-0.79-0.05-1.12-0.15s-0.61-0.23-0.84-0.41c-0.23-0.17-0.4-0.38-0.53-0.62
			c-0.12-0.24-0.18-0.5-0.18-0.79c0-0.29,0.06-0.55,0.19-0.79c0.13-0.24,0.3-0.45,0.53-0.62c0.23-0.17,0.51-0.31,0.84-0.41
			c0.33-0.1,0.7-0.15,1.1-0.15c0.42,0,0.79,0.05,1.12,0.15c0.33,0.1,0.61,0.23,0.84,0.41c0.23,0.17,0.4,0.38,0.53,0.62
			C178.72,83.06,178.78,83.32,178.78,83.61z M178.09,83.61c0-0.25-0.05-0.48-0.15-0.67c-0.1-0.19-0.24-0.36-0.42-0.49
			c-0.18-0.13-0.39-0.23-0.63-0.3c-0.24-0.07-0.5-0.1-0.78-0.1c-0.28,0-0.54,0.03-0.78,0.1c-0.24,0.07-0.45,0.17-0.63,0.3
			c-0.18,0.13-0.32,0.29-0.42,0.49c-0.1,0.19-0.15,0.42-0.15,0.67c0,0.25,0.05,0.48,0.15,0.67c0.1,0.19,0.24,0.36,0.42,0.49
			c0.18,0.13,0.39,0.23,0.63,0.29c0.24,0.07,0.5,0.1,0.78,0.1c0.28,0,0.53-0.03,0.77-0.1c0.24-0.07,0.45-0.16,0.62-0.29
			c0.18-0.13,0.32-0.29,0.42-0.49C178.04,84.09,178.09,83.86,178.09,83.61z"/>
		<path d="M180.76,85.5h-0.7v-3.78h3.41v0.42h-2.72v1.22h2.41v0.42h-2.41V85.5z"/>
		<path d="M189.27,85.5h-0.32l-1.44-2.26c-0.2-0.31-0.4-0.65-0.6-1.02h-0.03c0.04,0.53,0.06,1.01,0.06,1.45v1.83h-0.7v-3.78h1.01
			l1.35,2.14c0.15,0.25,0.32,0.54,0.51,0.89h0.02c0.21-0.38,0.37-0.68,0.51-0.89l1.35-2.14h1.01v3.78h-0.7v-1.83
			c0-0.43,0.02-0.91,0.06-1.45h-0.03c-0.21,0.39-0.41,0.73-0.6,1.02L189.27,85.5z"/>
		<path d="M193.43,85.5v-3.78h0.7v3.78H193.43z"/>
		<path d="M198.52,83.82c0.35,0.33,0.7,0.68,1.04,1.03h0.03c-0.04-0.37-0.06-0.74-0.06-1.13v-2.01h0.7v3.78h-0.7l-2.25-2.11
			c-0.39-0.37-0.73-0.71-1.04-1.03h-0.03c0.04,0.35,0.06,0.75,0.06,1.21v1.93h-0.7v-3.78h0.69L198.52,83.82z"/>
		<path d="M206.32,83.59c0,0.22-0.04,0.43-0.12,0.62c-0.08,0.19-0.21,0.37-0.37,0.52c-0.17,0.16-0.38,0.29-0.62,0.4
			c-0.25,0.11-0.54,0.2-0.87,0.26c-0.19,0.04-0.4,0.06-0.62,0.07s-0.46,0.02-0.72,0.02h-1.3v-3.78h1.31c0.26,0,0.5,0.01,0.72,0.02
			c0.22,0.01,0.43,0.04,0.62,0.07c0.33,0.06,0.62,0.15,0.87,0.26c0.25,0.11,0.46,0.24,0.62,0.39c0.16,0.15,0.29,0.32,0.37,0.51
			C206.28,83.17,206.32,83.37,206.32,83.59z M205.63,83.59c0-0.36-0.12-0.66-0.36-0.89c-0.24-0.23-0.59-0.39-1.04-0.48
			c-0.17-0.04-0.37-0.06-0.58-0.07c-0.21-0.01-0.46-0.02-0.72-0.02h-0.53v2.95h0.53c0.27,0,0.51-0.01,0.72-0.02
			c0.21-0.01,0.41-0.04,0.58-0.07c0.45-0.09,0.8-0.26,1.04-0.5C205.51,84.26,205.63,83.96,205.63,83.59z"/>
	</g>
</g>
</svg>
